<?xml version="1.0" encoding="UTF-8"?><svg id="Layer_1" xmlns="http://www.w3.org/2000/svg" viewBox="0 0 512 512"><defs><style>.cls-1{fill:#004242;}.cls-2{fill:#5b8aa9;}</style></defs><polygon class="cls-1" points="324.72 385.44 324.68 385.48 292.73 354.67 266.44 380.02 298.12 410.58 298.65 410.58 350.7 410.58 350.79 410.58 324.72 385.44"/><polygon class="cls-1" points="503.78 248.45 503.78 248.55 361.78 111.59 335.49 136.94 451.2 248.55 451.2 248.45 459.42 256 451.2 263.45 335.41 375.13 361.7 400.49 503.78 263.45 512 256 503.78 248.45"/><polygon points="350.7 101.42 324.68 126.52 324.8 126.64 350.95 101.42 350.7 101.42"/><polygon class="cls-1" points="350.7 101.42 298.65 101.42 298.12 101.42 255.75 142.28 229.46 167.64 145.58 248.55 145.58 248.45 137.35 256 145.58 263.45 229.46 344.36 245.64 328.76 255.75 319.01 230.34 294.5 255.75 294.5 255.75 278.35 213.6 278.35 200.54 265.75 198.8 264.07 255.75 264.07 255.75 247.93 198.8 247.93 213.6 233.65 255.75 233.65 255.75 217.5 230.34 217.5 324.68 126.52 350.7 101.42"/><polygon points="186.99 385.16 160.7 410.51 160.77 410.58 160.81 410.58 187.08 385.24 186.99 385.16"/><polygon points="160.77 101.42 187.06 126.77 187.08 126.76 160.81 101.42 160.77 101.42"/><polygon class="cls-1" points="60.8 263.45 52.58 256 60.8 248.45 60.8 248.55 176.37 137.08 150.08 111.72 8.22 248.55 8.22 248.45 0 256 8.22 263.45 150.01 400.21 176.3 374.85 60.8 263.45"/><polygon class="cls-2" points="213.38 101.42 213.35 101.42 160.81 101.42 187.08 126.76 229.46 167.64 255.75 142.28 213.38 101.42"/><path class="cls-2" d="m365.93,248.45v.09l-73.77-71.15-26.29,25.36,15.3,14.75h-25.41v16.15h42.15l14.8,14.28h-56.96v16.15h56.95l-14.8,14.28h-42.15v16.15h25.41l-25.41,24.51-10.11,9.75-16.18,15.6-10.11,9.75-32.27,31.13-26.27,25.34h52.58l32.25-31.11,26.29-25.36,94-90.66,8.22-7.45-8.22-7.55Zm-44.36,7.55h0s0,0,0,0h0Z"/></svg>