<svg width="880" height="572" xmlns="http://www.w3.org/2000/svg" xmlns:xlink="http://www.w3.org/1999/xlink" xml:space="preserve" overflow="hidden"><g transform="translate(-200 -64)"><g><g><g><g><path d="M556.844 660.969 556.775 661.038 501.986 608.204 456.903 651.675 511.229 704.081 512.138 704.081 601.396 704.081 601.55 704.081 556.844 660.969Z" fill="#004242" fill-rule="nonzero" fill-opacity="1" transform="matrix(1 0 0 1.00054 201 -81.5999)"/><path d="M863.904 426.053 863.904 426.224 620.396 191.359 575.313 234.831 773.738 426.224 773.738 426.053 787.834 439 773.738 451.776 575.176 643.289 620.259 686.778 863.904 451.776 878 439 863.904 426.053Z" fill="#004242" fill-rule="nonzero" fill-opacity="1" transform="matrix(1 0 0 1.00054 201 -81.5999)"/><path d="M601.396 173.919 556.775 216.962 556.981 217.168 601.824 173.919 601.396 173.919Z" fill="#000000" fill-rule="nonzero" fill-opacity="1" transform="matrix(1 0 0 1.00054 201 -81.5999)"/><path d="M601.396 173.919 512.138 173.919 511.229 173.919 438.571 243.988 393.488 287.476 249.647 426.224 249.647 426.053 235.534 439 249.647 451.776 393.488 590.524 421.234 563.772 438.571 547.052 394.997 505.021 438.571 505.021 438.571 477.327 366.291 477.327 343.895 455.72 340.911 452.839 438.571 452.839 438.571 425.161 340.911 425.161 366.291 400.673 438.571 400.673 438.571 372.979 394.997 372.979 556.775 216.962 601.396 173.919Z" fill="#004242" fill-rule="nonzero" fill-opacity="1" transform="matrix(1 0 0 1.00054 201 -81.5999)"/><path d="M320.659 660.489 275.575 703.961 275.695 704.081 275.764 704.081 320.813 660.626 320.659 660.489Z" fill="#000000" fill-rule="nonzero" fill-opacity="1" transform="matrix(1 0 0 1.00054 201 -81.5999)"/><path d="M275.695 173.919 320.779 217.391 320.813 217.374 275.764 173.919 275.695 173.919Z" fill="#000000" fill-rule="nonzero" fill-opacity="1" transform="matrix(1 0 0 1.00054 201 -81.5999)"/><path d="M104.262 451.776 90.1665 439 104.262 426.053 104.262 426.224 302.447 235.071 257.364 191.582 14.096 426.224 14.096 426.053 0 439 14.096 451.776 257.244 686.298 302.327 642.809 104.262 451.776Z" fill="#004242" fill-rule="nonzero" fill-opacity="1" transform="matrix(1 0 0 1.00054 201 -81.5999)"/><path d="M365.913 173.919 365.862 173.919 275.764 173.919 320.813 217.374 393.488 287.476 438.571 243.988 365.913 173.919Z" fill="#5B8AA9" fill-rule="nonzero" fill-opacity="1" transform="matrix(1 0 0 1.00054 201 -81.5999)"/><path d="M627.513 426.053 627.513 426.207 501.009 304.196 455.926 347.685 482.163 372.979 438.588 372.979 438.588 400.673 510.869 400.673 536.249 425.161 438.571 425.161 438.571 452.856 536.232 452.856 510.852 477.344 438.571 477.344 438.571 505.039 482.145 505.039 438.571 547.069 421.234 563.789 393.488 590.541 376.151 607.26 320.813 660.644 275.764 704.098 365.931 704.098 421.234 650.749 466.317 607.26 627.513 451.793 641.609 439.017 627.513 426.07ZM551.442 439C551.442 439 551.442 439 551.442 439Z" fill="#5B8AA9" fill-rule="nonzero" fill-opacity="1" transform="matrix(1 0 0 1.00054 201 -81.5999)"/></g></g></g></g></g></svg>